# xmcd
#
# Track frame offsets: 
#        150
#        20920
#        39341
#        62840
#        89604
#        115347
#        123537
#        143942
#        155327
#        176766
#        194989
#        218401
#
# Disc length: 3317 seconds
#
# Revision: 4
# Processed by: cddbd v1.5.2PL0 Copyright (c) Steve Scherf et al.
# Submitted via: ExactAudioCopy v0.99pb5
#
DISCID=b60cf30c
DTITLE=Too Slim and The Taildraggers - King Size Troublemakers
DYEAR=2000
DGENRE=Blues, Blues-Rock, Modern Electric Blues
TTITLE0=King Size Troublemaker
TTITLE1=Just Like I Am
TTITLE2=I'm Gonna Blow
TTITLE3=Potent 8
TTITLE4=More Must Be Better
TTITLE5=Sam's Pit
TTITLE6=I've Been Down
TTITLE7=Feel So Good
TTITLE8=Big Barn Boogie
TTITLE9=I Get Real High
TTITLE10=Crowbar Hotel
TTITLE11=Rosado
EXTD=0\n\n\n
EXTT0=
EXTT1=
EXTT2=
EXTT3=
EXTT4=
EXTT5=
EXTT6=
EXTT7=
EXTT8=
EXTT9=
EXTT10=
EXTT11=
PLAYORDER=
